<?xml version="1.0" encoding="utf-8"?>
<svg viewBox="196.748 25.975 150 150" xmlns="http://www.w3.org/2000/svg">
  <rect x="196.748" y="25.975" width="150" height="150" style="paint-order: fill; stroke: rgb(35, 25, 59); stroke-miterlimit: 3.7; fill: rgb(35, 25, 59);" transform="matrix(1, 0, 0, 1, 7.105427357601002e-15, 0)"/>
  <rect x="20" y="75" width="69.827" height="5.176" style="stroke: rgb(0, 0, 0); fill: rgb(63, 191, 210); stroke-width: 0px;" transform="matrix(1, -0.0008970000199042261, 0, 1, 184.7499542236328, -41.84541320800781)"/>
  <rect x="16" y="75" width="53.643" height="5.176" style="stroke: rgb(0, 0, 0); stroke-width: 0px; fill: rgb(167, 104, 69);" transform="matrix(1, -0.0008970000199042261, 0, 1, 202.27272033691406, -31.60097694396973)"/>
  <rect x="5.043" y="75" width="16.65" height="5.176" style="stroke: rgb(0, 0, 0); stroke-width: 0px; fill: rgb(158, 160, 186);" transform="matrix(1, -0.0008970000199042261, 0, 1, 222.7306060791016, -21.46991539001465)"/>
  <rect x="5.043" y="84" width="16.65" height="5.176" style="stroke: rgb(0, 0, 0); stroke-width: 0px; fill: rgb(158, 160, 186);" transform="matrix(1, -0.0008970000199042261, 0, 1, 222.7306060791016, -21.46991539001465)"/>
  <rect x="20" y="75" width="69.827" height="5.176" style="stroke: rgb(0, 0, 0); stroke-width: 0px; fill: rgb(17, 200, 180);" transform="matrix(1, -0.0008970000199042261, 0, 1, 197.80104064941406, -3.51957106590271)"/>
  <rect x="20" y="75" width="69.827" height="5.176" style="stroke: rgb(0, 0, 0); stroke-width: 0px; fill: rgb(158, 160, 186);" transform="matrix(1, -0.0008970000199042261, 0, 1, 206.83680725097656, 8.626517295837402)"/>
  <rect x="20" y="75" width="69.827" height="5.176" style="stroke: rgb(0, 0, 0); stroke-width: 0px; fill: rgb(167, 104, 69);" transform="matrix(1, -0.0008970000199042261, 0, 1, 218.49562072753906, 20.91038703918457)"/>
  <rect x="20" y="75" width="69.827" height="5.176" style="stroke: rgb(0, 0, 0); fill: rgb(63, 191, 210); stroke-width: 0px;" transform="matrix(1, -0.0008970000199042261, 0, 1, 197.5760955810547, 32.73690795898438)"/>
  <rect x="9.283" y="75" width="30.647" height="5.176" style="stroke: rgb(0, 0, 0); stroke-width: 0px; fill: rgb(167, 104, 69);" transform="matrix(1, -0.0008970000199042261, 0, 1, 217.78466796875, 45.79544830322266)"/>
  <rect x="20" y="75" width="69.827" height="5.176" style="stroke: rgb(0, 0, 0); stroke-width: 0px; fill: rgb(17, 200, 180);" transform="matrix(1, -0.0008970000199042261, 0, 1, 218.42674255371094, 57.68128967285157)"/>
  <rect x="20" y="75" width="69.827" height="5.176" style="stroke: rgb(0, 0, 0); fill: rgb(63, 191, 210); stroke-width: 0px;" transform="matrix(1, -0.0008970000199042261, 0, 1, 198.03741455078125, 69.62496185302734)"/>
  <rect x="20" y="75" width="69.827" height="5.176" style="stroke: rgb(0, 0, 0); stroke-width: 0px; fill: rgb(167, 104, 69);" transform="matrix(1, -0.0008970000199042261, 0, 1, 184.44151306152344, 80.08478546142578)"/>
  <rect x="20" y="75" width="69.827" height="5.176" style="stroke: rgb(0, 0, 0); stroke-width: 0px; fill: rgb(17, 200, 180);" transform="matrix(1, -0.0008970000199042261, 0, 1, 184.21746826171875, 89.32563018798828)"/>
  <rect x="16.249" y="75" width="53.643" height="5.176" style="stroke: rgb(0, 0, 0); stroke-width: 0px; fill: rgb(19, 200, 180);" transform="matrix(1, -0.0008970000199042261, 0, 1, 260.1473388671875, -31.812616348266605)"/>
  <rect x="20" y="71.2" width="69.827" height="5.176" style="stroke: rgb(0, 0, 0); stroke-width: 0px; fill: rgb(203, 148, 105);" transform="matrix(1, -0.0008970000199042261, 0, 1, 229.44902038574222, -17.81687355041504)"/>
  <rect x="20" y="80.2" width="69.827" height="5.176" style="stroke: rgb(0, 0, 0); stroke-width: 0px; fill: rgb(17, 200, 180);" transform="matrix(1, -0.0008970000199042261, 0, 1, 229.44902038574222, -17.81687355041504)"/>
  <rect x="5.043" y="78.6" width="16.65" height="5.176" style="stroke: rgb(0, 0, 0); stroke-width: 0px; fill: rgb(203, 148, 105);" transform="matrix(1, -0.0008970000199042261, 0, 1, 288.46807861328125, -7.202785968780518)"/>
  <rect x="10.901" y="67.3" width="35.988" height="5.176" style="stroke: rgb(0, 0, 0); fill: rgb(63, 191, 210); stroke-width: 0px;" transform="matrix(1, -0.0008970000199042261, 0, 1, 292.6513366699219, 16.092208862304688)"/>
  <rect x="8.016" y="67.3" width="26.463" height="5.176" style="stroke: rgb(0, 0, 0); stroke-width: 0px; fill: rgb(17, 200, 180);" transform="matrix(1, -0.0008970000199042261, 0, 1, 304.81817626953125, 28.675403594970703)"/>
  <rect x="13.482" y="75" width="44.51" height="5.176" style="stroke: rgb(0, 0, 0); stroke-width: 0px; fill: rgb(158, 160, 186);" transform="matrix(1, -0.0008970000199042261, 0, 1, 281.2199401855469, 32.873912811279304)"/>
  <rect x="9.283" y="75" width="30.647" height="5.176" style="stroke: rgb(0, 0, 0); stroke-width: 0px; fill: rgb(203, 148, 105);" transform="matrix(1, -0.0008970000199042261, 0, 1, 253.98796081542972, 45.83956909179688)"/>
  <rect x="9.283" y="75" width="30.647" height="5.176" style="stroke: rgb(0, 0, 0); stroke-width: 0px; fill: rgb(17, 200, 180);" transform="matrix(1, -0.0008970000199042261, 0, 1, 288.3230285644531, 46.1424789428711)"/>
  <rect x="15.755" y="74.8" width="52.012" height="5.176" style="stroke: rgb(0, 0, 0); stroke-width: 0px; fill: rgb(203, 148, 105);" transform="matrix(1, -0.0008970000199042261, 0, 1, 263.0039978027344, 80.21986389160156)"/>
  <rect x="8.073" y="69.2" width="26.65" height="5.176" style="stroke: rgb(0, 0, 0); fill: rgb(63, 191, 210); stroke-width: 0px;" transform="matrix(1, -0.0008970000199042261, 0, 1, 268.6584167480469, 94.98973083496094)"/>
  <path d="M 203.563 141.839 C 203.044 141.839 202.619 141.57 202.288 141.032 C 201.959 140.494 201.794 139.866 201.794 139.149 L 201.794 69.215 C 201.794 68.425 201.959 67.781 202.288 67.278 C 202.619 66.776 203.044 66.525 203.563 66.525 L 221.956 66.525 C 226.579 66.525 230.516 67.656 233.769 69.914 C 237.024 72.175 239.524 75.474 241.27 79.811 C 243.014 84.151 243.957 89.515 244.1 95.898 C 244.146 99.054 244.17 101.814 244.17 104.182 C 244.17 106.549 244.146 109.274 244.1 112.358 C 243.911 119.029 242.978 124.553 241.304 128.928 C 239.631 133.303 237.202 136.55 234.019 138.666 C 230.836 140.782 226.932 141.839 222.309 141.839 L 203.563 141.839 Z M 214.528 126.346 L 221.956 126.346 C 223.984 126.346 225.671 125.861 227.014 124.894 C 228.358 123.925 229.372 122.401 230.055 120.321 C 230.74 118.239 231.106 115.515 231.153 112.144 C 231.246 110.064 231.305 108.199 231.329 106.547 C 231.353 104.899 231.353 103.25 231.329 101.6 C 231.305 99.95 231.246 98.122 231.153 96.113 C 231.059 91.234 230.222 87.666 228.64 85.41 C 227.061 83.149 224.714 82.019 221.603 82.019 L 214.528 82.019 L 214.528 126.346 Z M 248.531 141.839 C 248.154 141.839 247.812 141.606 247.506 141.14 C 247.2 140.672 247.046 140.154 247.046 139.581 C 247.046 139.222 247.07 138.9 247.117 138.612 L 263.741 69.538 C 263.884 68.748 264.178 68.048 264.625 67.438 C 265.074 66.831 265.698 66.525 266.501 66.525 L 276.97 66.525 C 277.772 66.525 278.398 66.831 278.845 67.438 C 279.294 68.048 279.588 68.748 279.729 69.538 L 296.283 138.612 C 296.377 138.9 296.424 139.222 296.424 139.581 C 296.424 140.154 296.272 140.672 295.966 141.14 C 295.659 141.606 295.293 141.839 294.869 141.839 L 286.167 141.839 C 285.459 141.839 284.928 141.57 284.574 141.032 C 284.221 140.494 283.997 140.011 283.903 139.581 L 281.144 128.605 L 262.256 128.605 L 259.567 139.581 C 259.473 140.011 259.261 140.494 258.93 141.032 C 258.601 141.57 258.035 141.839 257.234 141.839 L 248.531 141.839 Z M 265.156 113.113 L 278.314 113.113 L 271.736 84.708 L 265.156 113.113 Z M 303.785 141.839 C 303.266 141.839 302.842 141.57 302.513 141.032 C 302.181 140.494 302.016 139.866 302.016 139.149 L 302.016 69.215 C 302.016 68.425 302.181 67.781 302.513 67.278 C 302.842 66.776 303.266 66.525 303.785 66.525 L 322.178 66.525 C 326.8 66.525 330.739 67.656 333.994 69.914 C 337.248 72.175 339.748 75.474 341.492 79.811 C 343.236 84.151 344.18 89.515 344.321 95.898 C 344.369 99.054 344.392 101.814 344.392 104.182 C 344.392 106.549 344.369 109.274 344.321 112.358 C 344.133 119.029 343.201 124.553 341.528 128.928 C 339.854 133.303 337.425 136.55 334.24 138.666 C 331.057 140.782 327.154 141.839 322.532 141.839 L 303.785 141.839 Z M 314.749 126.346 L 322.178 126.346 C 324.207 126.346 325.892 125.861 327.236 124.894 C 328.581 123.925 329.594 122.401 330.28 120.321 C 330.962 118.239 331.327 115.515 331.375 112.144 C 331.47 110.064 331.529 108.199 331.552 106.547 C 331.576 104.899 331.576 103.25 331.552 101.6 C 331.529 99.95 331.47 98.122 331.375 96.113 C 331.281 91.234 330.445 87.666 328.865 85.41 C 327.286 83.149 324.938 82.019 321.824 82.019 L 314.749 82.019 L 314.749 126.346 Z" style="fill: rgb(255, 255, 255);" transform="matrix(1, 0, 0, 1, 7.105427357601002e-15, 0)"/>
</svg>