<svg width="364" height="364" viewBox="0 0 482 366" preserveAspectRatio="none" xmlns="http://www.w3.org/2000/svg">
 <g>
  <title>Layer 1</title>
  <rect fill-opacity="0" fill="#8391AE" stroke="#23193b" stroke-width="99" x="95" y="75.5" width="282" height="45" id="svg_7"/>
  <rect fill-opacity="0" fill="#8391AE" stroke-width="99" x="143.99997" y="156.50001" width="196.00004" height="95.00002" id="svg_5" stroke="#23193b"/>
  <rect fill-opacity="0" fill="#8391AE" stroke-width="99" x="48.99996" y="46.50001" width="386.00005" height="275.00002" id="svg_4" stroke="#23193b"/>
  <ellipse stroke="#3ebed2" ry="1.49254" rx="99.25372" id="svg_35" cy="104.47756" cx="229.59697" stroke-width="24" fill="#8391AE"/>
  <ellipse stroke="#3ebed2" ry="1.49254" rx="71.64178" id="svg_20" cy="16.41787" cx="88.55218" stroke-width="24" fill="#8391AE"/>
  <ellipse stroke="#a76845" ry="1.49254" rx="132.83582" id="svg_26" cy="16.41787" cx="333.32826" stroke-width="24" fill="#8391AE"/>
  <ellipse stroke="#11c8b4" ry="1.49254" rx="128.35819" id="svg_27" cy="56.71637" cx="145.26859" stroke-width="24" fill="#8391AE"/>
  <ellipse stroke="#23193b" ry="1.49254" rx="73.88059" id="svg_28" cy="56.71637" cx="390.79092" stroke-width="24" fill="#8391AE"/>
  <ellipse stroke="#3ebed2" ry="1.49254" rx="37.31342" id="svg_30" cy="302.985" cx="51.23875" stroke-width="24" fill="#8391AE"/>
  <ellipse stroke="#a76845" ry="1.49254" rx="126.11939" id="svg_31" cy="349.25365" cx="141.53722" stroke-width="24" fill="#8391AE"/>
  <ellipse stroke="#11c8b4" ry="1.49254" rx="114.92535" id="svg_32" cy="302.985" cx="348.25363" stroke-width="24" fill="#8391AE"/>
  <ellipse stroke="#ca9469" ry="1.49254" rx="35.82089" id="svg_33" cy="304.47754" cx="160.19392" stroke-width="24" fill="#8391AE"/>
  <ellipse stroke="#9ea0ba" ry="1.49254" rx="79.85073" id="svg_34" cy="349.25365" cx="381.8357" stroke-width="24" fill="#8391AE"/>
  <ellipse stroke="#ca9469" ry="1.49254" rx="37.31342" id="svg_36" cy="105.97011" cx="57.20886" stroke-width="24" fill="#8391AE"/>
  <ellipse stroke="#9ea0ba" ry="1.49254" rx="47.76119" id="svg_37" cy="105.97011" cx="412.4327" stroke-width="24" fill="#8391AE"/>
  <ellipse stroke="#a76845" ry="1.49254" rx="126.11939" id="svg_38" cy="349.25365" cx="141.53722" stroke-width="24" fill="#8391AE"/>
  <ellipse stroke="#a76845" ry="1.49254" rx="126.11939" id="svg_39" cy="159.70143" cx="228.10437" stroke-width="24" fill="#8391AE"/>
  <ellipse stroke="#3ebed2" ry="1.49254" rx="23.13432" id="svg_40" cy="158.20891" cx="46.01487" stroke-width="24" fill="#8391AE"/>
  <ellipse stroke="#3ebed2" ry="1.49254" rx="37.31342" id="svg_41" cy="302.985" cx="51.23875" stroke-width="24" fill="#8391AE"/>
  <ellipse stroke="#11c8b4" ry="1.49254" rx="128.35819" id="svg_44" cy="56.71637" cx="145.26859" stroke-width="24" fill="#8391AE"/>
  <ellipse stroke="#23193b" ry="1.49254" rx="73.88059" id="svg_45" cy="56.71637" cx="390.79092" stroke-width="24" fill="#8391AE"/>
  <ellipse stroke="#11c8b4" ry="1.49254" rx="128.35819" id="svg_46" cy="56.71637" cx="145.26859" stroke-width="24" fill="#8391AE"/>
  <ellipse stroke="#ca9469" ry="1.49254" rx="73.88059" id="svg_47" cy="56.71637" cx="390.79092" stroke-width="24" fill="#8391AE"/>
  <ellipse stroke="#3ebed2" ry="1.49254" rx="37.31342" id="svg_48" cy="158.20891" cx="421.38795" stroke-width="24" fill="#8391AE"/>
  <ellipse stroke="#3ebed2" ry="1.49254" rx="71.64178" id="svg_54" cy="208.95515" cx="91.53726" stroke-width="24" fill="#8391AE"/>
  <ellipse stroke="#a76845" ry="1.49254" rx="132.83582" id="svg_55" cy="208.95515" cx="336.31333" stroke-width="24" fill="#8391AE"/>
  <ellipse stroke="#3ebed2" ry="1.49254" rx="99.25372" id="svg_56" cy="255.2238" cx="231.0895" stroke-width="24" fill="#8391AE"/>
  <ellipse stroke="#ca9469" ry="1.49254" rx="37.31342" id="svg_57" cy="256.71636" cx="59.70139" stroke-width="24" fill="#8391AE"/>
  <ellipse stroke="#9ea0ba" ry="1.49254" rx="47.76119" id="svg_58" cy="256.71636" cx="413.92524" stroke-width="24" fill="#8391AE"/>
  <text fill="#ffffff" stroke="#ffffff" stroke-width="14" x="1" y="172.30469" id="svg_8" font-size="225" font-family="Helvetica, sans-serif" text-anchor="start" xml:space="preserve">DAD</text>
  <text fill="#ffffff" stroke="#ffffff" stroke-width="14" x="1" y="350.30469" id="svg_1" font-size="210" font-family="Helvetica, sans-serif" text-anchor="start" xml:space="preserve">COD</text>
 </g>

</svg>